<?xml version="1.0" encoding="utf-8"?>
<!-- Generator: Adobe Illustrator 19.2.1, SVG Export Plug-In . SVG Version: 6.00 Build 0)  -->
<svg version="1.1" id="Layer_1" xmlns="http://www.w3.org/2000/svg" xmlns:xlink="http://www.w3.org/1999/xlink" x="0px" y="0px"
	 viewBox="0 0 360 360" style="enable-background:new 0 0 360 360;" xml:space="preserve">
<style type="text/css">
	.st0{fill:#010101;}
</style>
<g>
	<g>
		<g>
			<polygon class="st0" points="132.1,215.3 110.8,215.3 180,63.3 211.5,136.6 192.7,136.6 180.2,108 147.4,180.2 193.7,146.5 
				296.1,146.5 296.1,162.8 201.9,162.8 			"/>
			<g>
				<polygon class="st0" points="133.2,145.7 61.5,145.7 61.5,163.2 125,163.2 				"/>
				<polygon class="st0" points="145.4,119.6 61.5,119.6 61.5,136.5 137.5,136.5 				"/>
				<polygon class="st0" points="296.2,136.5 296.2,119.6 212.1,119.6 219.4,136.5 				"/>
				<polygon class="st0" points="242.1,189 296.2,189 296.2,172.5 234.9,172.5 				"/>
				<polygon class="st0" points="61.5,172.5 61.5,189 112.9,189 120.7,172.5 				"/>
			</g>
			<polygon class="st0" points="223.4,215.5 244.6,215.5 226.8,172.5 206.5,172.5 			"/>
		</g>
	</g>
	<g>
		<path d="M26.2,247l5.2-10.4h0.2l5,10.4H34l-0.6-1.5h-4.1l-0.7,1.5H26.2z M29.9,243.8h2.7l-1.3-3.2L29.9,243.8z"/>
		<polygon points="45,247 45,236.9 47.4,236.9 47.4,244.8 51.4,244.8 51.4,247 		"/>
		<path d="M59.2,247v-10.1h2.6c0.8,0,1.4,0.1,1.9,0.2c0.5,0.1,0.9,0.3,1.2,0.6c0.4,0.3,0.7,0.6,0.9,1c0.2,0.4,0.3,0.8,0.3,1.3
			c0,1-0.4,1.8-1.1,2.4c-0.7,0.6-1.7,0.9-3,0.9c-0.1,0-0.2,0-0.3,0c-0.1,0-0.1,0-0.2,0v3.7H59.2z M61.9,238.7h-0.3v2.7H62
			c0.6,0,1.1-0.1,1.4-0.4c0.3-0.2,0.5-0.6,0.5-1c0-0.5-0.2-0.8-0.5-1C63.1,238.8,62.6,238.7,61.9,238.7z"/>
		<polygon points="74.1,247 74.1,236.9 76.5,236.9 76.5,240.6 80.4,240.6 80.4,236.9 82.8,236.9 82.8,247 80.4,247 80.4,242.7 
			76.5,242.7 76.5,247 		"/>
		<path d="M91.3,247l5.2-10.4h0.2l5,10.4h-2.5l-0.6-1.5h-4.1l-0.7,1.5H91.3z M95.1,243.8h2.7l-1.3-3.2L95.1,243.8z"/>
		<rect x="120.5" y="236.9" width="2.4" height="10.1"/>
		<polygon points="134.7,247.1 134.7,236.7 134.9,236.7 141.2,242.6 141.2,237 143.4,237 143.4,247.5 143.2,247.5 136.9,241.6 
			136.9,247.1 		"/>
		<path d="M151.6,247v-10.1h2.7c1.9,0,3.4,0.4,4.4,1.4c1.1,0.9,1.6,2.1,1.6,3.7c0,0.9-0.2,1.8-0.6,2.5c-0.4,0.7-1,1.3-1.9,1.8
			c-0.5,0.3-1,0.5-1.5,0.6c-0.5,0.1-1.2,0.2-2,0.2H151.6z M154,244.8h0.5c1.1,0,1.9-0.3,2.5-0.8c0.6-0.5,0.9-1.2,0.9-2.1
			c0-0.9-0.3-1.6-0.9-2.1c-0.6-0.5-1.4-0.8-2.5-0.8H154V244.8z"/>
		<path d="M172.1,237.1v5.6c0,0.9,0.2,1.6,0.5,2c0.3,0.4,0.8,0.7,1.5,0.7c0.6,0,1.1-0.2,1.5-0.6c0.3-0.4,0.5-1,0.5-1.8v-5.8h2.2v5.8
			c0,1.5-0.4,2.6-1.1,3.4c-0.7,0.8-1.8,1.2-3.1,1.2c-1.3,0-2.4-0.4-3.1-1.2c-0.7-0.8-1.1-1.9-1.1-3.4v-5.8H172.1z"/>
		<path d="M186.7,243.8c0.6,0.4,1.2,0.6,1.6,0.8c0.4,0.2,0.9,0.2,1.3,0.2c0.4,0,0.8-0.1,1-0.3c0.3-0.2,0.4-0.4,0.4-0.7
			c0-0.4-0.4-0.9-1.4-1.4c-0.1-0.1-0.3-0.1-0.3-0.2l-0.7-0.4c-0.7-0.4-1.2-0.8-1.5-1.3c-0.3-0.5-0.5-1-0.5-1.6c0-0.8,0.3-1.5,0.9-2
			c0.6-0.5,1.4-0.8,2.4-0.8c0.4,0,0.7,0,1.2,0.1c0.4,0.1,0.9,0.2,1.4,0.4v2.4c-0.5-0.3-0.9-0.5-1.4-0.7c-0.4-0.2-0.8-0.3-1.1-0.3
			c-0.3,0-0.6,0.1-0.8,0.2c-0.2,0.1-0.3,0.3-0.3,0.6c0,0.2,0.1,0.3,0.2,0.5c0.1,0.2,0.3,0.3,0.5,0.4l1.2,0.7c1,0.5,1.7,1.1,2,1.5
			c0.3,0.5,0.5,1,0.5,1.7c0,1-0.3,1.8-1,2.4c-0.7,0.6-1.6,0.9-2.7,0.9c-0.4,0-0.8,0-1.2-0.1c-0.4-0.1-0.9-0.2-1.5-0.4L186.7,243.8z"
			/>
		<polygon points="204.5,247 204.5,239 201.3,239 201.3,236.9 210.2,236.9 210.2,239 207,239 207,247 		"/>
		<path d="M219.6,247.1V237h2.6c0.8,0,1.5,0.1,1.9,0.2c0.5,0.1,0.9,0.3,1.2,0.5c0.4,0.3,0.7,0.6,0.9,1c0.2,0.4,0.3,0.8,0.3,1.3
			c0,0.6-0.2,1.2-0.5,1.7c-0.3,0.5-0.8,0.9-1.4,1.1l3.1,4.3H225l-2.7-4h-0.3v4H219.6z M222.3,238.9h-0.4v2.8h0.5
			c0.6,0,1.1-0.1,1.4-0.4c0.3-0.2,0.5-0.6,0.5-1.1c0-0.5-0.2-0.8-0.5-1C223.5,239,223,238.9,222.3,238.9z"/>
		<rect x="233.8" y="237" width="2.4" height="10.1"/>
		<polygon points="246.3,247 246.3,236.9 252.6,236.9 252.6,238.9 248.7,238.9 248.7,240.8 252,240.8 252,242.8 248.7,242.8 
			248.7,244.8 252.6,244.8 252.6,247 		"/>
		<path d="M262.1,243.8c0.6,0.4,1.2,0.6,1.6,0.8c0.4,0.2,0.9,0.2,1.3,0.2c0.4,0,0.8-0.1,1-0.3c0.3-0.2,0.4-0.4,0.4-0.7
			c0-0.4-0.4-0.9-1.4-1.4c-0.1-0.1-0.3-0.1-0.3-0.2l-0.7-0.4c-0.7-0.4-1.2-0.8-1.5-1.3c-0.3-0.5-0.5-1-0.5-1.6c0-0.8,0.3-1.5,0.9-2
			c0.6-0.5,1.4-0.8,2.4-0.8c0.4,0,0.7,0,1.2,0.1c0.4,0.1,0.9,0.2,1.4,0.4v2.4c-0.5-0.3-0.9-0.5-1.4-0.7c-0.4-0.2-0.8-0.3-1.1-0.3
			c-0.3,0-0.6,0.1-0.8,0.2c-0.2,0.1-0.3,0.3-0.3,0.6c0,0.2,0.1,0.3,0.2,0.5c0.1,0.2,0.3,0.3,0.5,0.4l1.2,0.7c1,0.5,1.7,1.1,2,1.5
			c0.3,0.5,0.5,1,0.5,1.7c0,1-0.3,1.8-1,2.4c-0.7,0.6-1.6,0.9-2.7,0.9c-0.4,0-0.8,0-1.2-0.1c-0.4-0.1-0.9-0.2-1.5-0.4L262.1,243.8z"
			/>
		<rect x="288" y="236.9" width="2.4" height="10.1"/>
		<polygon points="300.5,247.1 300.5,236.7 300.7,236.7 307,242.6 307,237 309.2,237 309.2,247.5 309,247.5 302.7,241.6 
			302.7,247.1 		"/>
		<path d="M325.3,240.6c-0.4-0.4-0.9-0.8-1.3-1c-0.4-0.2-0.9-0.3-1.4-0.3c-0.8,0-1.5,0.3-2.1,0.9c-0.5,0.6-0.8,1.3-0.8,2.2
			c0,0.9,0.3,1.6,0.8,2.2c0.5,0.6,1.2,0.8,2.1,0.8c0.5,0,1-0.1,1.5-0.3c0.5-0.2,1-0.5,1.5-0.9l-0.2,2.6c-0.4,0.3-0.9,0.5-1.4,0.7
			c-0.5,0.2-1,0.2-1.6,0.2c-0.6,0-1.1-0.1-1.7-0.3c-0.5-0.2-1-0.5-1.5-0.8c-0.6-0.5-1.1-1.1-1.5-1.8c-0.3-0.7-0.5-1.5-0.5-2.4
			c0-0.7,0.1-1.4,0.4-2.1c0.3-0.6,0.6-1.2,1.1-1.7c0.5-0.5,1-0.9,1.7-1.1c0.6-0.3,1.3-0.4,2-0.4c0.6,0,1.1,0.1,1.6,0.2
			c0.5,0.2,1,0.4,1.5,0.7L325.3,240.6z"/>
		<circle class="st0" cx="331.1" cy="245.3" r="1.7"/>
	</g>
</g>
</svg>
