<?xml version="1.0" encoding="utf-8"?>
<!-- Generator: Adobe Illustrator 19.2.1, SVG Export Plug-In . SVG Version: 6.00 Build 0)  -->
<svg version="1.1" xmlns="http://www.w3.org/2000/svg" xmlns:xlink="http://www.w3.org/1999/xlink" x="0px" y="0px"
	 viewBox="0 0 720 576" style="enable-background:new 0 0 720 576;" xml:space="preserve">
<style type="text/css">
	.st0{fill:#13110C;}
</style>
<g id="Chest_Screen">
	<g>
		<g>
			<g>
				<polygon class="st0" points="274,-206 235.3,-206 360.9,-481.7 418.1,-348.7 383.9,-348.7 361.3,-400.7 301.8,-269.6 
					385.8,-330.9 571.6,-330.9 571.6,-301.1 400.7,-301.1 				"/>
				<g>
					<polygon class="st0" points="275.9,-332.2 145.9,-332.2 145.9,-300.4 261,-300.4 					"/>
					<polygon class="st0" points="298.1,-379.6 145.9,-379.6 145.9,-348.9 283.7,-348.9 					"/>
					<polygon class="st0" points="571.8,-348.9 571.8,-379.6 419.1,-379.6 432.3,-348.9 					"/>
					<polygon class="st0" points="473.5,-253.6 571.8,-253.6 571.8,-283.7 460.5,-283.7 					"/>
					<polygon class="st0" points="145.9,-283.7 145.9,-253.6 239.1,-253.6 253.2,-283.7 					"/>
				</g>
				<polygon class="st0" points="439.7,-205.7 478.1,-205.7 445.8,-283.7 409,-283.7 				"/>
			</g>
		</g>
		<g>
			<path d="M81.7-148.5l9.4-18.9h0.3l9.1,18.9h-4.6l-1.2-2.7h-7.4l-1.2,2.7H81.7z M88.6-154.3h4.8L91-160L88.6-154.3z"/>
			<polygon points="116,-148.5 116,-166.8 120.4,-166.8 120.4,-152.4 127.5,-152.4 127.5,-148.5 			"/>
			<path d="M141.7-148.5v-18.3h4.7c1.5,0,2.6,0.1,3.5,0.3c0.9,0.2,1.6,0.6,2.3,1.1c0.7,0.5,1.2,1.1,1.6,1.9c0.4,0.7,0.6,1.5,0.6,2.4
				c0,1.9-0.7,3.3-2,4.4c-1.3,1.1-3.1,1.6-5.4,1.6c-0.2,0-0.4,0-0.5,0c-0.1,0-0.2,0-0.3,0v6.7H141.7z M146.6-163.5H146v4.9h0.8
				c1.1,0,1.9-0.2,2.5-0.6c0.6-0.4,0.9-1,0.9-1.8c0-0.8-0.3-1.4-0.9-1.8C148.8-163.3,147.9-163.5,146.6-163.5z"/>
			<polygon points="168.8,-148.5 168.8,-166.8 173.1,-166.8 173.1,-160.1 180.2,-160.1 180.2,-166.8 184.5,-166.8 184.5,-148.5 
				180.2,-148.5 180.2,-156.2 173.1,-156.2 173.1,-148.5 			"/>
			<path d="M199.9-148.5l9.4-18.9h0.3l9.1,18.9h-4.6l-1.2-2.7h-7.4l-1.2,2.7H199.9z M206.8-154.3h4.8l-2.4-5.7L206.8-154.3z"/>
			<rect x="253" y="-166.8" width="4.4" height="18.3"/>
			<polygon points="278.6,-148.2 278.6,-167.2 279.1,-167.2 290.5,-156.4 290.5,-166.6 294.5,-166.6 294.5,-147.5 294.2,-147.5 
				282.7,-158.2 282.7,-148.2 			"/>
			<path d="M309.4-148.5v-18.3h4.9c3.4,0,6.1,0.8,8,2.5c1.9,1.6,2.9,3.9,2.9,6.7c0,1.7-0.4,3.2-1.2,4.5c-0.8,1.3-1.9,2.4-3.4,3.3
				c-0.8,0.5-1.8,0.8-2.8,1.1c-1,0.2-2.2,0.3-3.7,0.3H309.4z M313.8-152.4h1c1.9,0,3.4-0.5,4.5-1.4c1.1-0.9,1.6-2.2,1.6-3.8
				c0-1.6-0.5-2.9-1.6-3.9c-1.1-0.9-2.6-1.4-4.5-1.4h-1V-152.4z"/>
			<path d="M346.5-166.5v10.1c0,1.6,0.3,2.8,0.9,3.6c0.6,0.8,1.5,1.2,2.7,1.2c1.2,0,2.1-0.4,2.7-1.1c0.6-0.8,0.9-1.8,0.9-3.3v-10.5
				h3.9v10.5c0,2.7-0.7,4.7-2,6.2c-1.4,1.5-3.2,2.2-5.7,2.2c-2.4,0-4.3-0.7-5.7-2.2c-1.4-1.5-2-3.5-2-6.2v-10.6H346.5z"/>
			<path d="M373-154.2c1.1,0.7,2.1,1.2,2.9,1.5c0.8,0.3,1.6,0.4,2.3,0.4c0.8,0,1.4-0.2,1.8-0.5c0.5-0.3,0.7-0.8,0.7-1.3
				c0-0.8-0.8-1.6-2.5-2.5c-0.3-0.1-0.5-0.3-0.6-0.4l-1.2-0.7c-1.2-0.7-2.1-1.5-2.7-2.3c-0.6-0.9-0.9-1.8-0.9-2.9
				c0-1.5,0.6-2.7,1.7-3.6c1.1-0.9,2.6-1.4,4.3-1.4c0.6,0,1.4,0.1,2.1,0.2c0.8,0.2,1.6,0.4,2.5,0.7v4.3c-0.9-0.6-1.7-1-2.5-1.3
				c-0.8-0.3-1.5-0.5-2-0.5c-0.6,0-1.1,0.1-1.5,0.4c-0.4,0.3-0.5,0.6-0.5,1.1c0,0.3,0.1,0.6,0.3,0.9c0.2,0.3,0.5,0.5,1,0.8l2.1,1.2
				c1.8,1,3,1.9,3.6,2.8c0.6,0.8,0.9,1.8,0.9,3c0,1.8-0.6,3.2-1.8,4.3c-1.2,1.1-2.8,1.7-4.9,1.7c-0.7,0-1.4-0.1-2.2-0.2
				c-0.8-0.1-1.7-0.4-2.6-0.7L373-154.2z"/>
			<polygon points="405.4,-148.5 405.4,-163 399.6,-163 399.6,-166.8 415.6,-166.8 415.6,-163 409.8,-163 409.8,-148.5 			"/>
			<path d="M432.8-148.2v-18.3h4.7c1.5,0,2.7,0.1,3.5,0.3c0.8,0.2,1.6,0.5,2.2,1c0.7,0.5,1.2,1.1,1.6,1.8c0.4,0.7,0.6,1.5,0.6,2.3
				c0,1.2-0.3,2.2-0.9,3c-0.6,0.9-1.4,1.5-2.5,2l5.6,7.9h-5l-4.9-7.2H437v7.2H432.8z M437.7-163.2H437v5.1h0.9
				c1.1,0,1.9-0.2,2.5-0.7c0.6-0.4,0.9-1.1,0.9-1.9c0-0.9-0.3-1.5-0.8-1.9C439.9-163,439-163.2,437.7-163.2z"/>
			<rect x="458.5" y="-166.5" width="4.4" height="18.3"/>
			<polygon points="481.3,-148.5 481.3,-166.8 492.6,-166.8 492.6,-163 485.5,-163 485.5,-159.7 491.6,-159.7 491.6,-156 
				485.5,-156 485.5,-152.3 492.7,-152.3 492.7,-148.5 			"/>
			<path d="M510-154.2c1.1,0.7,2.1,1.2,2.9,1.5c0.8,0.3,1.6,0.4,2.3,0.4c0.8,0,1.4-0.2,1.8-0.5c0.5-0.3,0.7-0.8,0.7-1.3
				c0-0.8-0.8-1.6-2.5-2.5c-0.3-0.1-0.5-0.3-0.6-0.4l-1.2-0.7c-1.2-0.7-2.1-1.5-2.7-2.3c-0.6-0.9-0.9-1.8-0.9-2.9
				c0-1.5,0.6-2.7,1.7-3.6c1.1-0.9,2.6-1.4,4.3-1.4c0.6,0,1.3,0.1,2.1,0.2c0.8,0.2,1.6,0.4,2.5,0.7v4.3c-0.9-0.6-1.7-1-2.5-1.3
				c-0.8-0.3-1.5-0.5-2-0.5c-0.6,0-1.1,0.1-1.5,0.4c-0.4,0.3-0.5,0.6-0.5,1.1c0,0.3,0.1,0.6,0.3,0.9c0.2,0.3,0.5,0.5,1,0.8l2.2,1.2
				c1.8,1,3,1.9,3.6,2.8c0.6,0.8,0.9,1.8,0.9,3c0,1.8-0.6,3.2-1.8,4.3c-1.2,1.1-2.8,1.7-4.9,1.7c-0.7,0-1.4-0.1-2.2-0.2
				c-0.8-0.1-1.7-0.4-2.6-0.7L510-154.2z"/>
			<rect x="556.8" y="-166.8" width="4.4" height="18.3"/>
			<polygon points="579.6,-148.2 579.6,-167.2 580,-167.2 591.4,-156.4 591.4,-166.6 595.4,-166.6 595.4,-147.5 595.1,-147.5 
				583.6,-158.2 583.6,-148.2 			"/>
			<path d="M624.6-160.1c-0.8-0.8-1.6-1.4-2.4-1.8c-0.8-0.4-1.6-0.6-2.5-0.6c-1.5,0-2.8,0.5-3.7,1.6c-1,1.1-1.5,2.4-1.5,4.1
				c0,1.7,0.5,3,1.4,4c1,1,2.2,1.5,3.8,1.5c0.9,0,1.8-0.2,2.7-0.6c0.9-0.4,1.8-1,2.7-1.7l-0.3,4.8c-0.8,0.5-1.6,0.9-2.5,1.2
				c-0.9,0.3-1.9,0.4-2.9,0.4c-1.1,0-2.1-0.2-3.1-0.5c-1-0.3-1.9-0.8-2.7-1.5c-1.2-0.9-2.1-2-2.7-3.3c-0.6-1.3-0.9-2.8-0.9-4.3
				c0-1.3,0.2-2.6,0.7-3.8c0.5-1.2,1.1-2.2,2-3.1c0.9-0.9,1.9-1.6,3.1-2.1c1.2-0.5,2.4-0.7,3.6-0.7c1,0,2,0.1,2.9,0.4
				c0.9,0.3,1.8,0.7,2.6,1.3L624.6-160.1z"/>
			<circle class="st0" cx="635.2" cy="-151.5" r="3.1"/>
		</g>
	</g>
	<g>
		<path d="M153.6-113.1l5.2-5.3h2.7l-6,6l6.1,7.3h-2.7L154-111l-0.4,0.4v5.5h-2v-13.3h2V-113.1z"/>
		<path d="M168.6-105.1v-14.2l9.7,10.2v-9.3h2v14.1l-9.7-10.1v9.3H168.6z"/>
		<path d="M188.3-111.8c0-1.9,0.7-3.5,2.1-4.8c1.4-1.3,3-2,4.9-2c1.9,0,3.5,0.7,4.9,2c1.4,1.4,2,3,2,4.9c0,1.9-0.7,3.5-2.1,4.9
			c-1.4,1.3-3,2-5,2c-1.7,0-3.3-0.6-4.6-1.8C189.1-108,188.3-109.7,188.3-111.8z M190.3-111.8c0,1.5,0.5,2.7,1.5,3.6
			c1,0.9,2.1,1.4,3.4,1.4c1.4,0,2.6-0.5,3.5-1.4c1-1,1.4-2.2,1.4-3.6c0-1.4-0.5-2.6-1.4-3.6c-0.9-1-2.1-1.4-3.5-1.4
			c-1.4,0-2.6,0.5-3.5,1.4C190.8-114.4,190.3-113.2,190.3-111.8z"/>
		<path d="M212.5-112.1l-3.7-6.4h2.3l2.5,4.5l2.7-4.5h2.3l-3.8,6.4l4,7h-2.3l-3-5.1l-3,5.1h-2.3L212.5-112.1z"/>
		<path d="M226.6-118.4l3.7,9.2l3.7-9.2h2.2l-6,14.3l-5.8-14.3H226.6z"/>
		<path d="M245.2-118.4v13.3h-2v-13.3H245.2z"/>
		<path d="M255.7-118.4v11.4h3.9v1.9h-5.9v-13.3H255.7z"/>
		<path d="M268.8-118.4v11.4h3.9v1.9h-5.9v-13.3H268.8z"/>
		<path d="M287.3-116.5H282v3.2h5.2v1.9H282v4.5h5.3v1.9H280v-13.3h7.4V-116.5z"/>
		<path d="M296.1-107.6l1.7,0.7l-2.5,4.9l-1.3-0.5L296.1-107.6z"/>
		<path d="M464.9-107.6l1.7,0.7l-2.5,4.9l-1.3-0.5L464.9-107.6z"/>
		<path d="M320.5-116.5v11.4h-2v-11.4h-3.1v-1.9h8.1v1.9H320.5z"/>
		<path d="M338-116.5h-5.3v3.2h5.2v1.9h-5.2v4.5h5.3v1.9h-7.4v-13.3h7.4V-116.5z"/>
		<path d="M345.9-105.1v-14.2l9.7,10.2v-9.3h2v14.1l-9.7-10.1v9.3H345.9z"/>
		<path d="M366.2-105.1v-14.2l9.7,10.2v-9.3h2v14.1l-9.7-10.1v9.3H366.2z"/>
		<path d="M393.8-116.5h-5.3v3.2h5.2v1.9h-5.2v4.5h5.3v1.9h-7.4v-13.3h7.4V-116.5z"/>
		<path d="M409.3-116.4l-1.6,1c-0.3-0.5-0.6-0.9-0.9-1c-0.3-0.2-0.7-0.3-1.1-0.3c-0.6,0-1,0.2-1.4,0.5c-0.4,0.3-0.6,0.7-0.6,1.2
			c0,0.7,0.5,1.2,1.4,1.6l1.3,0.5c1.1,0.4,1.9,1,2.4,1.6c0.5,0.6,0.8,1.4,0.8,2.3c0,1.2-0.4,2.2-1.2,3c-0.8,0.8-1.8,1.2-3.1,1.2
			c-1.2,0-2.1-0.3-2.9-1c-0.7-0.7-1.2-1.7-1.4-2.9l2-0.4c0.1,0.8,0.3,1.3,0.5,1.6c0.4,0.6,1,0.9,1.8,0.9c0.6,0,1.1-0.2,1.6-0.6
			c0.4-0.4,0.6-1,0.6-1.6c0-0.3,0-0.5-0.1-0.7c-0.1-0.2-0.2-0.4-0.3-0.6c-0.2-0.2-0.3-0.4-0.6-0.5c-0.2-0.2-0.5-0.3-0.9-0.5
			l-1.3-0.5c-1.8-0.8-2.7-1.9-2.7-3.4c0-1,0.4-1.8,1.1-2.5c0.8-0.7,1.7-1,2.9-1C407.2-118.7,408.4-117.9,409.3-116.4z"/>
		<path d="M424.9-116.4l-1.6,1c-0.3-0.5-0.6-0.9-0.9-1c-0.3-0.2-0.7-0.3-1.1-0.3c-0.6,0-1,0.2-1.4,0.5c-0.4,0.3-0.6,0.7-0.6,1.2
			c0,0.7,0.5,1.2,1.4,1.6l1.3,0.5c1.1,0.4,1.9,1,2.4,1.6c0.5,0.6,0.8,1.4,0.8,2.3c0,1.2-0.4,2.2-1.2,3c-0.8,0.8-1.8,1.2-3.1,1.2
			c-1.2,0-2.1-0.3-2.9-1c-0.7-0.7-1.2-1.7-1.4-2.9l2-0.4c0.1,0.8,0.3,1.3,0.5,1.6c0.4,0.6,1,0.9,1.8,0.9c0.6,0,1.1-0.2,1.6-0.6
			c0.4-0.4,0.6-1,0.6-1.6c0-0.3,0-0.5-0.1-0.7c-0.1-0.2-0.2-0.4-0.3-0.6c-0.2-0.2-0.3-0.4-0.6-0.5c-0.2-0.2-0.5-0.3-0.9-0.5
			l-1.3-0.5c-1.8-0.8-2.7-1.9-2.7-3.4c0-1,0.4-1.8,1.2-2.5c0.8-0.7,1.7-1,2.9-1C422.8-118.7,424-117.9,424.9-116.4z"/>
		<path d="M440.3-116.5H435v3.2h5.2v1.9H435v4.5h5.3v1.9h-7.4v-13.3h7.4V-116.5z"/>
		<path d="M455.6-116.5h-5.3v3.2h5.2v1.9h-5.2v4.5h5.3v1.9h-7.4v-13.3h7.4V-116.5z"/>
		<path d="M487.3-117.6v8c0,1.1,0.2,2,0.6,2.5c0.6,0.8,1.3,1.1,2.4,1.1c1,0,1.8-0.4,2.4-1.1c0.4-0.5,0.6-1.3,0.6-2.5v-8h2v8.6
			c0,1.4-0.4,2.6-1.3,3.5c-1,1-2.2,1.5-3.6,1.5c-1.4,0-2.6-0.5-3.6-1.5c-0.9-0.9-1.3-2.1-1.3-3.5v-8.6H487.3z"/>
		<path d="M504.4-105.3c0-0.3,0.1-0.6,0.4-0.8c0.2-0.2,0.5-0.4,0.8-0.4c0.3,0,0.6,0.1,0.8,0.4c0.2,0.2,0.4,0.5,0.4,0.8
			c0,0.3-0.1,0.6-0.4,0.9c-0.2,0.2-0.5,0.3-0.8,0.3c-0.3,0-0.6-0.1-0.9-0.3C504.5-104.6,504.4-104.9,504.4-105.3z"/>
		<path d="M524.9-115.6l-1.6,1c-0.3-0.5-0.6-0.9-0.9-1c-0.3-0.2-0.7-0.3-1.1-0.3c-0.6,0-1,0.2-1.4,0.5c-0.4,0.3-0.6,0.7-0.6,1.2
			c0,0.7,0.5,1.2,1.5,1.6l1.3,0.5c1.1,0.4,1.9,1,2.4,1.6c0.5,0.6,0.8,1.4,0.8,2.3c0,1.2-0.4,2.2-1.2,3c-0.8,0.8-1.8,1.2-3.1,1.2
			c-1.2,0-2.1-0.3-2.9-1c-0.7-0.7-1.2-1.7-1.4-2.9l2-0.4c0.1,0.8,0.3,1.3,0.5,1.6c0.4,0.6,1,0.9,1.8,0.9c0.6,0,1.1-0.2,1.6-0.6
			c0.4-0.4,0.6-1,0.6-1.6c0-0.3,0-0.5-0.1-0.7c-0.1-0.2-0.2-0.4-0.3-0.6c-0.2-0.2-0.3-0.4-0.6-0.5c-0.2-0.2-0.5-0.3-0.9-0.5L520-111
			c-1.8-0.8-2.7-1.9-2.7-3.4c0-1,0.4-1.8,1.1-2.5c0.8-0.7,1.7-1,2.9-1C522.8-117.9,524-117.1,524.9-115.6z"/>
		<path d="M535.2-105.3c0-0.3,0.1-0.6,0.4-0.8c0.2-0.2,0.5-0.4,0.8-0.4c0.3,0,0.6,0.1,0.8,0.4c0.2,0.2,0.4,0.5,0.4,0.8
			c0,0.3-0.1,0.6-0.4,0.9c-0.2,0.2-0.5,0.3-0.8,0.3c-0.3,0-0.6-0.1-0.9-0.3C535.3-104.6,535.2-104.9,535.2-105.3z"/>
		<path d="M554.7-107.5H549l-1.5,3.2h-2.2l6.6-14.2l6.4,14.2h-2.2L554.7-107.5z M553.9-109.4l-2-4.5l-2.1,4.5H553.9z"/>
		<path d="M566-105.3c0-0.3,0.1-0.6,0.4-0.8c0.2-0.2,0.5-0.4,0.8-0.4c0.3,0,0.6,0.1,0.8,0.4c0.2,0.2,0.4,0.5,0.4,0.8
			c0,0.3-0.1,0.6-0.4,0.9c-0.2,0.2-0.5,0.3-0.8,0.3c-0.3,0-0.6-0.1-0.9-0.3C566.1-104.6,566-104.9,566-105.3z"/>
	</g>
</g>
<g id="Pocket_Screen">
	<g>
		<g>
			<g>
				<g>
					<polygon class="st0" points="311.8,349.3 289.8,349.3 361.2,192.7 393.7,268.2 374.2,268.2 361.4,238.7 327.6,313.2 
						375.3,278.4 480.8,278.4 480.8,295.3 383.7,295.3 					"/>
					<g>
						<polygon class="st0" points="312.9,277.6 239.1,277.6 239.1,295.7 304.4,295.7 						"/>
						<polygon class="st0" points="325.5,250.7 239.1,250.7 239.1,268.1 317.3,268.1 						"/>
						<polygon class="st0" points="480.9,268.1 480.9,250.7 394.2,250.7 401.7,268.1 						"/>
						<polygon class="st0" points="425.1,322.3 480.9,322.3 480.9,305.2 417.7,305.2 						"/>
						<polygon class="st0" points="239.1,305.2 239.1,322.3 292,322.3 300,305.2 						"/>
					</g>
					<polygon class="st0" points="405.9,349.5 427.8,349.5 409.4,305.2 388.5,305.2 					"/>
				</g>
			</g>
		</g>
		<g>
			<path d="M218,382.7l6-12.2h0.2l5.9,12.2h-3l-0.8-1.7h-4.8l-0.8,1.7H218z M222.5,378.9h3.1l-1.5-3.7L222.5,378.9z"/>
			<polygon points="240.1,382.7 240.1,370.9 242.9,370.9 242.9,380.2 247.6,380.2 247.6,382.7 			"/>
			<path d="M256.7,382.7v-11.8h3c0.9,0,1.7,0.1,2.2,0.2c0.5,0.1,1,0.4,1.5,0.7c0.4,0.3,0.8,0.7,1,1.2c0.2,0.5,0.4,1,0.4,1.5
				c0,1.2-0.4,2.1-1.3,2.8c-0.9,0.7-2,1.1-3.5,1.1c-0.2,0-0.3,0-0.3,0c-0.1,0-0.1,0-0.2,0v4.3H256.7z M259.9,373h-0.4v3.2h0.5
				c0.7,0,1.3-0.1,1.6-0.4c0.4-0.3,0.6-0.7,0.6-1.2c0-0.5-0.2-0.9-0.6-1.2C261.3,373.2,260.7,373,259.9,373z"/>
			<polygon points="274.2,382.7 274.2,370.9 277,370.9 277,375.2 281.5,375.2 281.5,370.9 284.3,370.9 284.3,382.7 281.5,382.7 
				281.5,377.7 277,377.7 277,382.7 			"/>
			<path d="M294.3,382.7l6-12.2h0.2l5.9,12.2h-3l-0.7-1.7h-4.8l-0.8,1.7H294.3z M298.7,378.9h3.1l-1.5-3.7L298.7,378.9z"/>
			<rect x="328.5" y="370.9" width="2.8" height="11.8"/>
			<polygon points="345.1,382.9 345.1,370.6 345.3,370.6 352.7,377.6 352.7,371 355.3,371 355.3,383.3 355.1,383.3 347.7,376.4 
				347.7,382.9 			"/>
			<path d="M364.9,382.7v-11.8h3.1c2.2,0,3.9,0.5,5.2,1.6c1.3,1.1,1.9,2.5,1.9,4.3c0,1.1-0.2,2.1-0.7,2.9c-0.5,0.9-1.2,1.6-2.2,2.1
				c-0.5,0.3-1.1,0.5-1.8,0.7c-0.6,0.1-1.4,0.2-2.4,0.2H364.9z M367.7,380.2h0.6c1.2,0,2.2-0.3,2.9-0.9c0.7-0.6,1-1.4,1-2.5
				c0-1.1-0.3-1.9-1-2.5c-0.7-0.6-1.7-0.9-2.9-0.9h-0.6V380.2z"/>
			<path d="M388.8,371.1v6.5c0,1,0.2,1.8,0.6,2.3c0.4,0.5,1,0.8,1.7,0.8c0.8,0,1.3-0.2,1.7-0.7c0.4-0.5,0.6-1.2,0.6-2.1v-6.8h2.5
				v6.8c0,1.7-0.4,3-1.3,4c-0.9,1-2.1,1.4-3.6,1.4c-1.6,0-2.8-0.5-3.7-1.4c-0.9-0.9-1.3-2.3-1.3-4v-6.8H388.8z"/>
			<path d="M405.9,379c0.7,0.4,1.3,0.8,1.9,0.9c0.5,0.2,1,0.3,1.5,0.3c0.5,0,0.9-0.1,1.2-0.3c0.3-0.2,0.4-0.5,0.4-0.8
				c0-0.5-0.5-1-1.6-1.6c-0.2-0.1-0.3-0.2-0.4-0.2l-0.8-0.5c-0.8-0.4-1.4-0.9-1.7-1.5c-0.4-0.6-0.6-1.2-0.6-1.9c0-1,0.4-1.7,1.1-2.3
				c0.7-0.6,1.6-0.9,2.8-0.9c0.4,0,0.9,0.1,1.4,0.1c0.5,0.1,1,0.2,1.6,0.5v2.8c-0.6-0.4-1.1-0.6-1.6-0.8c-0.5-0.2-0.9-0.3-1.3-0.3
				c-0.4,0-0.7,0.1-0.9,0.3c-0.2,0.2-0.3,0.4-0.3,0.7c0,0.2,0.1,0.4,0.2,0.6c0.1,0.2,0.3,0.3,0.6,0.5l1.4,0.8
				c1.2,0.6,1.9,1.2,2.3,1.8c0.4,0.5,0.6,1.2,0.6,1.9c0,1.2-0.4,2.1-1.2,2.8c-0.8,0.7-1.8,1.1-3.1,1.1c-0.4,0-0.9,0-1.4-0.1
				c-0.5-0.1-1.1-0.2-1.7-0.4L405.9,379z"/>
			<polygon points="426.9,382.7 426.9,373.3 423.1,373.3 423.1,370.9 433.4,370.9 433.4,373.3 429.7,373.3 429.7,382.7 			"/>
			<path d="M444.5,382.9V371h3c1,0,1.7,0.1,2.3,0.2c0.5,0.1,1,0.3,1.4,0.6c0.4,0.3,0.8,0.7,1,1.2c0.2,0.5,0.4,1,0.4,1.5
				c0,0.7-0.2,1.4-0.6,2c-0.4,0.6-0.9,1-1.6,1.3l3.6,5.1h-3.2l-3.2-4.6h-0.4v4.6H444.5z M447.7,373.2h-0.5v3.3h0.6
				c0.7,0,1.3-0.1,1.6-0.4c0.4-0.3,0.6-0.7,0.6-1.2c0-0.6-0.2-1-0.5-1.2C449.1,373.3,448.5,373.2,447.7,373.2z"/>
			<rect x="461" y="371" width="2.8" height="11.8"/>
			<polygon points="475.8,382.7 475.8,370.9 483.1,370.9 483.1,373.3 478.5,373.3 478.5,375.4 482.4,375.4 482.4,377.9 478.5,377.9 
				478.5,380.2 483.1,380.2 483.1,382.7 			"/>
			<path d="M494.3,379c0.7,0.4,1.3,0.8,1.9,0.9c0.5,0.2,1,0.3,1.5,0.3c0.5,0,0.9-0.1,1.2-0.3c0.3-0.2,0.4-0.5,0.4-0.8
				c0-0.5-0.5-1-1.6-1.6c-0.2-0.1-0.3-0.2-0.4-0.2l-0.8-0.5c-0.8-0.4-1.4-0.9-1.7-1.5c-0.4-0.6-0.6-1.2-0.6-1.9c0-1,0.4-1.7,1.1-2.3
				c0.7-0.6,1.6-0.9,2.8-0.9c0.4,0,0.9,0.1,1.4,0.1c0.5,0.1,1,0.2,1.6,0.5v2.8c-0.6-0.4-1.1-0.6-1.6-0.8c-0.5-0.2-0.9-0.3-1.3-0.3
				c-0.4,0-0.7,0.1-0.9,0.3c-0.2,0.2-0.3,0.4-0.3,0.7c0,0.2,0.1,0.4,0.2,0.6c0.1,0.2,0.3,0.3,0.6,0.5l1.4,0.8
				c1.2,0.6,1.9,1.2,2.3,1.8c0.4,0.5,0.6,1.2,0.6,1.9c0,1.2-0.4,2.1-1.2,2.8c-0.8,0.7-1.8,1.1-3.1,1.1c-0.4,0-0.9,0-1.4-0.1
				c-0.5-0.1-1.1-0.2-1.7-0.4L494.3,379z"/>
		</g>
	</g>
</g>
</svg>
