<svg xmlns="http://www.w3.org/2000/svg" width="20" height="20" viewBox="0 0 20 20">
  <metadata><?xpacket begin="﻿" id="W5M0MpCehiHzreSzNTczkc9d"?>
<x:xmpmeta xmlns:x="adobe:ns:meta/" x:xmptk="Adobe XMP Core 5.6-c138 79.159824, 2016/09/14-01:09:01        ">
   <rdf:RDF xmlns:rdf="http://www.w3.org/1999/02/22-rdf-syntax-ns#">
      <rdf:Description rdf:about=""/>
   </rdf:RDF>
</x:xmpmeta>
                                                                                                    
                                                                                                    
                                                                                                    
                                                                                                    
                                                                                                    
                                                                                                    
                                                                                                    
                                                                                                    
                                                                                                    
                                                                                                    
                                                                                                    
                                                                                                    
                                                                                                    
                                                                                                    
                                                                                                    
                                                                                                    
                                                                                                    
                                                                                                    
                                                                                                    
                                                                                                    
                           
<?xpacket end="w"?></metadata>
<defs>
    <style>
      .cls-1 {
        fill-rule: evenodd;
      }
    </style>
  </defs>
  <path id="icon_eagle" class="cls-1" d="M1053,82a10.026,10.026,0,0,0-9.91,8.615A10.555,10.555,0,0,0,1043,92a9.9,9.9,0,0,0,9.19,9.982c0.04,0-.05,0,0,0,0.18,0.009.63,0.019,0.81,0.019A10,10,0,0,0,1053,82Zm0,19.606c-0.23,0-.46-0.009-0.69-0.025a7.956,7.956,0,0,1-.36-2.5c0-3.8,1.75-5.217,4.15-5.217a3.575,3.575,0,0,1,.86.1c-1.11-.918-4.92-0.235-4.93-0.233h0c0.29-.779,1.87-0.858,2.88-1.163a1.463,1.463,0,0,0,.87-1.984,1.019,1.019,0,0,1-.12-0.887,0.483,0.483,0,0,1,.46-0.058,5.845,5.845,0,0,1,1.49.643,0.671,0.671,0,0,0-.22.715,1.376,1.376,0,0,1-.86,1.4,7.029,7.029,0,0,1-2.43.556,3.243,3.243,0,0,0-2.07.776,7.528,7.528,0,0,1,3.11-.538c1.55-.068,2.57.443,2.75,1.209a1.151,1.151,0,0,1-.13.874,3.63,3.63,0,0,0,1.35-1.788c0.7-2.245-1.15-3.681-3.47-4.178,0,0-1.26-4.717-11.39-1.27A9.6,9.6,0,1,1,1053,101.6Zm-1.02-12.922a1.971,1.971,0,0,1,1.89.924,1.166,1.166,0,0,1-1.08-.189A1.149,1.149,0,0,1,1051.98,88.681Zm4.33,2.437a0.257,0.257,0,0,0,.1,0h0a0.538,0.538,0,0,1,.26-0.008,0.967,0.967,0,0,1,.18.077h0a0.1,0.1,0,0,0,.14-0.011,0.1,0.1,0,0,0-.03-0.129,1.276,1.276,0,0,0-.59-0.32,0.209,0.209,0,0,0-.26.16A0.216,0.216,0,0,0,1056.31,91.118Z" transform="translate(-1043 -82)"/>
</svg>
