<svg xmlns="http://www.w3.org/2000/svg" width="16" height="16" viewBox="0 0 16 16">
  <metadata><?xpacket begin="﻿" id="W5M0MpCehiHzreSzNTczkc9d"?>
<x:xmpmeta xmlns:x="adobe:ns:meta/" x:xmptk="Adobe XMP Core 5.6-c138 79.159824, 2016/09/14-01:09:01        ">
   <rdf:RDF xmlns:rdf="http://www.w3.org/1999/02/22-rdf-syntax-ns#">
      <rdf:Description rdf:about=""/>
   </rdf:RDF>
</x:xmpmeta>
                                                                                                    
                                                                                                    
                                                                                                    
                                                                                                    
                                                                                                    
                                                                                                    
                                                                                                    
                                                                                                    
                                                                                                    
                                                                                                    
                                                                                                    
                                                                                                    
                                                                                                    
                                                                                                    
                                                                                                    
                                                                                                    
                                                                                                    
                                                                                                    
                                                                                                    
                                                                                                    
                           
<?xpacket end="w"?></metadata>
<defs>
    <style>
      .cls-1 {
        fill: #f6f7f9;
        fill-rule: evenodd;
      }
    </style>
  </defs>
  <path id="icon_blog" class="cls-1" d="M1444.63,18.36h2.65a1.1,1.1,0,0,0,1.13-1.063,1.167,1.167,0,0,0-1.11-1.187l-2.63,0A1.124,1.124,0,1,0,1444.63,18.36Zm4.99,2.9h-5.27a1.124,1.124,0,0,0,0,2.248h5.27A1.124,1.124,0,0,0,1449.62,21.263ZM1454.15,12h-14.3a0.85,0.85,0,0,0-.85.851v14.3a0.85,0.85,0,0,0,.85.851h14.3a0.85,0.85,0,0,0,.85-0.851v-14.3A0.85,0.85,0,0,0,1454.15,12Zm-1.81,13.385a4.032,4.032,0,0,1-2.95,1.152h-4.81a4.056,4.056,0,0,1-3.1-1.135,4.36,4.36,0,0,1-.94-3.186,2.738,2.738,0,0,1,0-.287V16.959a3.647,3.647,0,0,1,1.03-2.433,3.7,3.7,0,0,1,2.81-1.063h0.04l3.08,0h0.03a3.4,3.4,0,0,1,3.48,3.41,5.005,5.005,0,0,1-.1,1.617,2.544,2.544,0,0,1,2.06.839,3.516,3.516,0,0,1,.49,2.294v0.705A4.34,4.34,0,0,1,1452.34,25.385Z" transform="translate(-1439 -12)"/>
</svg>
