<svg xmlns="http://www.w3.org/2000/svg" width="20.56" height="20" viewBox="0 0 20.56 20">
  <metadata><?xpacket begin="﻿" id="W5M0MpCehiHzreSzNTczkc9d"?>
<x:xmpmeta xmlns:x="adobe:ns:meta/" x:xmptk="Adobe XMP Core 5.6-c138 79.159824, 2016/09/14-01:09:01        ">
   <rdf:RDF xmlns:rdf="http://www.w3.org/1999/02/22-rdf-syntax-ns#">
      <rdf:Description rdf:about=""/>
   </rdf:RDF>
</x:xmpmeta>
                                                                                                    
                                                                                                    
                                                                                                    
                                                                                                    
                                                                                                    
                                                                                                    
                                                                                                    
                                                                                                    
                                                                                                    
                                                                                                    
                                                                                                    
                                                                                                    
                                                                                                    
                                                                                                    
                                                                                                    
                                                                                                    
                                                                                                    
                                                                                                    
                                                                                                    
                                                                                                    
                           
<?xpacket end="w"?></metadata>
<defs>
    <style>
      .cls-1 {
        fill: #fff;
        fill-rule: evenodd;
      }
    </style>
  </defs>
  <path id="icon_compare_2" class="cls-1" d="M1180.2,3251a3.488,3.488,0,0,0,3.3-2.29h10.81a0.671,0.671,0,0,0,.6-0.6v-5.15l0.64,0.8a0.875,0.875,0,0,0,.66.32,0.985,0.985,0,0,0,.72-0.32,1.026,1.026,0,0,0,.31-0.76,1.075,1.075,0,0,0-.32-0.76c-2.65-2.65-2.66-2.65-2.66-2.65a1.071,1.071,0,0,0-1.53.06c-0.02,0-2.58,2.59-2.58,2.59a1.08,1.08,0,0,0,.76,1.84,1.165,1.165,0,0,0,.79-0.32l0.84-.8v2.69a0.51,0.51,0,0,1-.52.52h-8.59a3.645,3.645,0,0,0-3.25-2.21,3.489,3.489,0,0,0-3.48,3.51A3.53,3.53,0,0,0,1180.2,3251Zm-1.36-3.53a1.36,1.36,0,1,1,1.36,1.37A1.357,1.357,0,0,1,1178.84,3247.47Zm14.9-16.48a3.532,3.532,0,0,0-3.3,2.35H1179.1c0.11-.04.22,0-0.03-0.04v5.7l-0.65-.8a1.086,1.086,0,0,0-.68-0.32c-0.23-.03-0.75-0.03-1.03-0.04,0.01,0.58.01,0.83,0.01,1.12a1.035,1.035,0,0,0,.32.76l2.62,2.64a0.906,0.906,0,0,0,.73.22,1.179,1.179,0,0,0,.8-0.29l2.58-2.59a1.07,1.07,0,0,0,.32-0.75c0-.29-0.02-0.66-0.01-1.11-0.42.01-.76,0.02-1.05,0.02a1.14,1.14,0,0,0-.78.32l-0.82.82v-2.71a0.409,0.409,0,0,1,.47-0.42h8.59a3.6,3.6,0,0,0,3.25,2.16,3.489,3.489,0,0,0,3.48-3.51A3.532,3.532,0,0,0,1193.74,3230.99Zm1.36,3.48a1.365,1.365,0,1,1-1.36-1.37A1.364,1.364,0,0,1,1195.1,3234.47Z" transform="translate(-1176.69 -3231)"/>
</svg>
