<svg xmlns="http://www.w3.org/2000/svg" width="15.85" height="16" viewBox="0 0 15.85 16">
  <metadata><?xpacket begin="﻿" id="W5M0MpCehiHzreSzNTczkc9d"?>
<x:xmpmeta xmlns:x="adobe:ns:meta/" x:xmptk="Adobe XMP Core 5.6-c138 79.159824, 2016/09/14-01:09:01        ">
   <rdf:RDF xmlns:rdf="http://www.w3.org/1999/02/22-rdf-syntax-ns#">
      <rdf:Description rdf:about=""/>
   </rdf:RDF>
</x:xmpmeta>
                                                                                                    
                                                                                                    
                                                                                                    
                                                                                                    
                                                                                                    
                                                                                                    
                                                                                                    
                                                                                                    
                                                                                                    
                                                                                                    
                                                                                                    
                                                                                                    
                                                                                                    
                                                                                                    
                                                                                                    
                                                                                                    
                                                                                                    
                                                                                                    
                                                                                                    
                                                                                                    
                           
<?xpacket end="w"?></metadata>
<defs>
    <style>
      .cls-1 {
        fill: #fff;
        fill-rule: evenodd;
      }
    </style>
  </defs>
  <path id="icon_login" class="cls-1" d="M1103.05,24.1l6.54-3.81a0.332,0.332,0,0,0,0-.579l-6.54-3.811a0.347,0.347,0,0,0-.34,0,0.336,0.336,0,0,0-.16.29v1.774h-5.65a0.336,0.336,0,0,0-.34.335v3.4a0.336,0.336,0,0,0,.34.335h5.65v1.773a0.335,0.335,0,0,0,.16.29,0.361,0.361,0,0,0,.17.045A0.336,0.336,0,0,0,1103.05,24.1Zm6.9-12.1h-6.76a0.328,0.328,0,0,0-.33.335v1a0.328,0.328,0,0,0,.33.335h6.76a0.792,0.792,0,0,1,.79.8V25.529a0.793,0.793,0,0,1-.79.8h-6.76a0.327,0.327,0,0,0-.33.334v1a0.327,0.327,0,0,0,.33.334h6.76a2.463,2.463,0,0,0,2.45-2.47V14.469A2.464,2.464,0,0,0,1109.95,12Z" transform="translate(-1096.56 -12)"/>
</svg>
