<svg xmlns="http://www.w3.org/2000/svg" width="23.812" height="16" viewBox="0 0 23.812 16">
  <metadata><?xpacket begin="﻿" id="W5M0MpCehiHzreSzNTczkc9d"?>
<x:xmpmeta xmlns:x="adobe:ns:meta/" x:xmptk="Adobe XMP Core 5.6-c138 79.159824, 2016/09/14-01:09:01        ">
   <rdf:RDF xmlns:rdf="http://www.w3.org/1999/02/22-rdf-syntax-ns#">
      <rdf:Description rdf:about=""/>
   </rdf:RDF>
</x:xmpmeta>
                                                                                                    
                                                                                                    
                                                                                                    
                                                                                                    
                                                                                                    
                                                                                                    
                                                                                                    
                                                                                                    
                                                                                                    
                                                                                                    
                                                                                                    
                                                                                                    
                                                                                                    
                                                                                                    
                                                                                                    
                                                                                                    
                                                                                                    
                                                                                                    
                                                                                                    
                                                                                                    
                           
<?xpacket end="w"?></metadata>
<defs>
    <style>
      .cls-1 {
        fill: #fff;
        fill-rule: evenodd;
      }
    </style>
  </defs>
  <path id="icon_delivery" class="cls-1" d="M465.964,18.907l-4.528-4.466A1.526,1.526,0,0,0,460.359,14h-2.283V13.143a1.152,1.152,0,0,0-1.157-1.148H443.733a1.148,1.148,0,0,0-1.152,1.148v7.691h23.837V20A1.529,1.529,0,0,0,465.964,18.907Zm-1.972.148h-4.384a0.177,0.177,0,0,1-.178-0.177V15.5a0.177,0.177,0,0,1,.178-0.177h0.835a0.207,0.207,0,0,1,.128.05l3.544,3.378A0.176,0.176,0,0,1,463.992,19.055Zm2.427,2.415v2.544a1.151,1.151,0,0,1-1.152,1.149h-1.233a3.162,3.162,0,0,0-6.256,0h-6.249a3.16,3.16,0,0,0-6.252,0h-1.544a1.151,1.151,0,0,1-1.152-1.149V21.47h23.838Zm-5.512,1.765a2.384,2.384,0,1,0,2.388,2.382A2.387,2.387,0,0,0,460.907,23.235Zm0,3.575a1.193,1.193,0,1,1,1.192-1.193A1.192,1.192,0,0,1,460.907,26.81Zm-12.5-3.575a2.384,2.384,0,1,0,2.387,2.382A2.387,2.387,0,0,0,448.4,23.235Zm0,3.575a1.193,1.193,0,1,1,1.2-1.193A1.192,1.192,0,0,1,448.4,26.81Z" transform="translate(-442.594 -12)"/>
</svg>
