<svg xmlns="http://www.w3.org/2000/svg" width="19.812" height="16" viewBox="0 0 19.812 16">
  <metadata><?xpacket begin="﻿" id="W5M0MpCehiHzreSzNTczkc9d"?>
<x:xmpmeta xmlns:x="adobe:ns:meta/" x:xmptk="Adobe XMP Core 5.6-c138 79.159824, 2016/09/14-01:09:01        ">
   <rdf:RDF xmlns:rdf="http://www.w3.org/1999/02/22-rdf-syntax-ns#">
      <rdf:Description rdf:about=""/>
   </rdf:RDF>
</x:xmpmeta>
                                                                                                    
                                                                                                    
                                                                                                    
                                                                                                    
                                                                                                    
                                                                                                    
                                                                                                    
                                                                                                    
                                                                                                    
                                                                                                    
                                                                                                    
                                                                                                    
                                                                                                    
                                                                                                    
                                                                                                    
                                                                                                    
                                                                                                    
                                                                                                    
                                                                                                    
                                                                                                    
                           
<?xpacket end="w"?></metadata>
<defs>
    <style>
      .cls-1 {
        fill: #fff;
        fill-rule: evenodd;
      }
    </style>
  </defs>
  <path id="icon_size" class="cls-1" d="M556.567,21.25l-1.1-.131a4.862,4.862,0,0,0-.488-1.173l0.68-.861a0.352,0.352,0,0,0-.027-0.457L554.505,17.5a0.359,0.359,0,0,0-.459-0.028l-0.867.679A4.868,4.868,0,0,0,552,17.67l-0.13-1.092a0.356,0.356,0,0,0-.344-0.3h-1.6a0.356,0.356,0,0,0-.344.3l-0.132,1.091a4.882,4.882,0,0,0-1.179.485l-0.868-.678a0.356,0.356,0,0,0-.458.027l-1.131,1.126a0.353,0.353,0,0,0-.028.456l0.682,0.861a4.812,4.812,0,0,0-.487,1.174l-1.1.131a0.354,0.354,0,0,0-.3.342v1.59a0.353,0.353,0,0,0,.3.341l1.1,0.132a4.864,4.864,0,0,0,.487,1.172l-0.681.862a0.354,0.354,0,0,0,.028.457l1.13,1.125a0.356,0.356,0,0,0,.458.028l0.868-.68a4.859,4.859,0,0,0,1.179.485l0.132,1.091a0.356,0.356,0,0,0,.344.3h1.6a0.356,0.356,0,0,0,.344-0.3L552,27.1a4.864,4.864,0,0,0,1.179-.485l0.868,0.677a0.358,0.358,0,0,0,.458-0.026l1.131-1.126a0.351,0.351,0,0,0,.028-0.456l-0.682-.862a4.8,4.8,0,0,0,.487-1.173l1.1-.13a0.353,0.353,0,0,0,.305-0.342V21.591A0.354,0.354,0,0,0,556.567,21.25Zm-5.84,4.19a3.055,3.055,0,1,1,3.073-3.055A3.063,3.063,0,0,1,550.727,25.44Zm13.464-9.206-0.827-.1A3.609,3.609,0,0,0,563,15.253l0.514-.649a0.265,0.265,0,0,0-.021-0.344l-0.851-.846a0.269,0.269,0,0,0-.346-0.021l-0.653.511a3.642,3.642,0,0,0-.887-0.363l-0.1-.821a0.265,0.265,0,0,0-.257-0.228h-1.2a0.266,0.266,0,0,0-.259.228l-0.1.821a3.65,3.65,0,0,0-.888.364l-0.653-.51a0.272,0.272,0,0,0-.345.019l-0.852.848a0.264,0.264,0,0,0-.021.343l0.514,0.649a3.634,3.634,0,0,0-.367.884l-0.826.1a0.267,0.267,0,0,0-.229.258v1.2a0.264,0.264,0,0,0,.229.256l0.825,0.1a3.7,3.7,0,0,0,.368.882l-0.514.649a0.267,0.267,0,0,0,.021.344l0.85,0.846a0.267,0.267,0,0,0,.345.021l0.653-.512a3.635,3.635,0,0,0,.888.364l0.1,0.822a0.267,0.267,0,0,0,.259.226h1.2a0.267,0.267,0,0,0,.258-0.226l0.1-.822a3.619,3.619,0,0,0,.888-0.364l0.653,0.51a0.269,0.269,0,0,0,.346-0.02l0.851-.847a0.265,0.265,0,0,0,.021-0.343L563,18.927a3.576,3.576,0,0,0,.366-0.882l0.827-.1a0.267,0.267,0,0,0,.229-0.258v-1.2A0.264,0.264,0,0,0,564.191,16.234Zm-4.4,3.157a2.3,2.3,0,1,1,2.312-2.3A2.307,2.307,0,0,1,559.794,19.391Z" transform="translate(-544.594 -12.5)"/>
</svg>
