<svg id="Слой_1" data-name="Слой 1" xmlns="http://www.w3.org/2000/svg" viewBox="0 0 440.26 110.12"><defs><style>.cls-1{fill:#1d1d1b;}</style></defs><title>Монтажная область 1</title><g id="_Группа_" data-name="&lt;Группа&gt;"><g id="_Группа_2" data-name="&lt;Группа&gt;"><path id="_Контур_" data-name="&lt;Контур&gt;" class="cls-1" d="M79.5 41.04h24.62V0H76.08L0 94.73v15.39h16.57l30.09-38.64H165l17.44-21.55-114.91-.34 12.31-15.16-.34 6.61z"/><path id="_Контур_2" data-name="&lt;Контур&gt;" class="cls-1" d="M116.09 40.7V0h101.57l-17.78 23.6h-57.46l-1.02 17.1h-25.31z"/><path id="_Прямоугольник_" data-name="&lt;Прямоугольник&gt;" class="cls-1" d="M75.73 79.69h25.99v30.44H75.73z"/><path id="_Прямоугольник_2" data-name="&lt;Прямоугольник&gt;" class="cls-1" d="M116.09 79.69h25.99v30.44h-25.99z"/></g><path id="_Прямоугольник_3" data-name="&lt;Прямоугольник&gt;" class="cls-1" d="M50.97 49.56h389.29v3.92H50.97z"/><path class="cls-1" d="M244.92 10.31h-11.58L236.41.18h17.36l12.3 40.51H254.5l-3.07-10.13h-12.68l-3.06 10.14h-11.58l8.57-28.21h11.58l-2.4 8h6.51L245.09 9.7zM271.89.18h11.55v30.39h23.18V40.7h-34.76zM312.4.18h29.66l5.06 5.06v15.17l-5.06 5.06h-18.09V40.7H312.4zm11.6 15.2h11.58v-5H324zM376.07 15.38V.18h11.58v40.49h-11.58V25.51h-11.58V40.7h-11.58V.18h11.58v15.2zM406.62 30.57l-3.06 10.13H392L404.28.18h17.36l12.3 40.51h-11.57l-3.07-10.12zM413 9.7l-3.24 10.74h6.51zM281.73 80.67v2.89h11.6v10.13h-11.6v15.19h-11.57V80.67zm-11.55-2.17V68.37H302V78.5zM307.83 68.37h11.55v30.39h23.18v10.13H307.8zM370.37 88.71l-.32.58v19.59h-11.57V89.29L346.9 68.37h12.3zm-5-13.11l4-7.23h12.3l-10.23 18.38z"/></g></svg>