<svg xmlns="http://www.w3.org/2000/svg" width="14.09" height="20" viewBox="0 0 14.09 20">
  <metadata><?xpacket begin="﻿" id="W5M0MpCehiHzreSzNTczkc9d"?>
<x:xmpmeta xmlns:x="adobe:ns:meta/" x:xmptk="Adobe XMP Core 5.6-c138 79.159824, 2016/09/14-01:09:01        ">
   <rdf:RDF xmlns:rdf="http://www.w3.org/1999/02/22-rdf-syntax-ns#">
      <rdf:Description rdf:about=""/>
   </rdf:RDF>
</x:xmpmeta>
                                                                                                    
                                                                                                    
                                                                                                    
                                                                                                    
                                                                                                    
                                                                                                    
                                                                                                    
                                                                                                    
                                                                                                    
                                                                                                    
                                                                                                    
                                                                                                    
                                                                                                    
                                                                                                    
                                                                                                    
                                                                                                    
                                                                                                    
                                                                                                    
                                                                                                    
                                                                                                    
                           
<?xpacket end="w"?></metadata>
<defs>
    <style>
      .cls-1 {
        fill: #fff;
        fill-rule: evenodd;
      }
    </style>
  </defs>
  <path id="icon_tab_2" class="cls-1" d="M1155.22,3231.01h-12.04a1.029,1.029,0,0,0-1.03,1.03v13.54a1.424,1.424,0,0,0,.61,1.18l5.73,4.01a1.251,1.251,0,0,0,1.41,0l5.73-4.01a1.434,1.434,0,0,0,.62-1.18v-13.54A1.029,1.029,0,0,0,1155.22,3231.01Zm-1.7,7.73-1.96,1.67,0.61,2.5a0.534,0.534,0,0,1-.8.59l-2.17-1.36-2.18,1.36a0.543,0.543,0,0,1-.81-0.59l0.61-2.51-1.96-1.66a0.542,0.542,0,0,1,.31-0.95l2.56-.19,0.96-2.39a0.539,0.539,0,0,1,1,0l0.97,2.39,2.55,0.19A0.538,0.538,0,0,1,1153.52,3238.74Z" transform="translate(-1142.16 -3231)"/>
</svg>
