<svg xmlns="http://www.w3.org/2000/svg" width="16" height="16" viewBox="0 0 16 16">
<defs>
    <style>
      .cls-1 {
        fill: #fff;
        fill-rule: evenodd;
      }
    </style>
  </defs>
  <path id="icon_contact" class="cls-1" d="M364.721,22.5a9.094,9.094,0,0,1-2.855-.455,1.255,1.255,0,0,0-1.269.268l-1.8,1.359a9.947,9.947,0,0,1-4.474-4.472l1.319-1.754a1.292,1.292,0,0,0,.318-1.311,9.127,9.127,0,0,1-.456-2.86,1.286,1.286,0,0,0-1.285-1.285h-2.941a1.286,1.286,0,0,0-1.284,1.285,14.744,14.744,0,0,0,14.727,14.728,1.286,1.286,0,0,0,1.285-1.285V23.788A1.286,1.286,0,0,0,364.721,22.5Z" transform="translate(-350 -12)"/>
</svg>
