<svg xmlns="http://www.w3.org/2000/svg" width="44" height="40" viewBox="0 0 44 40">
<defs>
    <style>
      .cls-1 {
        fill: #fff;
        fill-rule: evenodd;
      }
    </style>
  </defs>
  <path id="icon_bag" class="cls-1" d="M1529.48,86.074h40.74v4.444h-40.74V86.074Zm40.74,11.851V92h-40.74v12.592a0.739,0.739,0,0,0,.74.741h5.21a3.7,3.7,0,1,0,4.4,0h15.6a3.7,3.7,0,1,0,4.4,0h4.47a0.741,0.741,0,0,0,0-1.481h-33.34V97.925h39.26Zm-43.7-24.443h2.96v11.11h40.74V78.667h-39.26V72.741a0.739,0.739,0,0,0-.74-0.741h-3.7A0.741,0.741,0,0,0,1526.52,73.481Z" transform="translate(-1525.78 -72)"/>
</svg>
