<svg xmlns="http://www.w3.org/2000/svg" width="11.25" height="16" viewBox="0 0 11.25 16">
<defs>
    <style>
      .cls-1 {
        fill: #7f8000;
        fill-rule: evenodd;
      }
    </style>
  </defs>
  <path id="icon_tab" class="cls-1" d="M1180.81,12.009h-9.63a0.823,0.823,0,0,0-.82.823V23.667a1.136,1.136,0,0,0,.49.938l4.59,3.209a0.98,0.98,0,0,0,1.12,0l4.59-3.209a1.136,1.136,0,0,0,.49-0.938V12.832A0.825,0.825,0,0,0,1180.81,12.009Zm-1.35,6.185-1.57,1.332,0.49,2a0.428,0.428,0,0,1-.64.472L1176,20.911,1174.26,22a0.434,0.434,0,0,1-.65-0.472l0.49-2-1.57-1.332a0.434,0.434,0,0,1,.25-0.762l2.05-.15,0.77-1.912a0.432,0.432,0,0,1,.8,0l0.77,1.912,2.04,0.15A0.434,0.434,0,0,1,1179.46,18.194Z" transform="translate(-1170.38 -12)"/>
</svg>
