<svg xmlns="http://www.w3.org/2000/svg" width="16.44" height="16" viewBox="0 0 16.44 16">
  <metadata><?xpacket begin="﻿" id="W5M0MpCehiHzreSzNTczkc9d"?>
<x:xmpmeta xmlns:x="adobe:ns:meta/" x:xmptk="Adobe XMP Core 5.6-c138 79.159824, 2016/09/14-01:09:01        ">
   <rdf:RDF xmlns:rdf="http://www.w3.org/1999/02/22-rdf-syntax-ns#">
      <rdf:Description rdf:about=""/>
   </rdf:RDF>
</x:xmpmeta>
                                                                                                    
                                                                                                    
                                                                                                    
                                                                                                    
                                                                                                    
                                                                                                    
                                                                                                    
                                                                                                    
                                                                                                    
                                                                                                    
                                                                                                    
                                                                                                    
                                                                                                    
                                                                                                    
                                                                                                    
                                                                                                    
                                                                                                    
                                                                                                    
                                                                                                    
                                                                                                    
                           
<?xpacket end="w"?></metadata>
<defs>
    <style>
      .cls-1 {
        fill: #fff;
        fill-rule: evenodd;
      }
    </style>
  </defs>
  <path id="icon_compare" class="cls-1" d="M1279.08,30a2.788,2.788,0,0,0,2.64-1.838h8.65a0.526,0.526,0,0,0,.48-0.473v-4.12l0.51,0.635a0.7,0.7,0,0,0,.53.256,0.792,0.792,0,0,0,.58-0.256,0.877,0.877,0,0,0-.01-1.216c-2.12-2.121-2.13-2.121-2.13-2.121a0.885,0.885,0,0,0-.65-0.23,0.861,0.861,0,0,0-.58.284c-0.01,0-2.06,2.067-2.06,2.067a0.864,0.864,0,0,0,.61,1.472,0.907,0.907,0,0,0,.63-0.256l0.67-.635V25.72a0.407,0.407,0,0,1-.41.419h-6.87a2.916,2.916,0,0,0-2.6-1.769,2.793,2.793,0,0,0-2.79,2.81A2.828,2.828,0,0,0,1279.08,30Zm-1.09-2.823a1.09,1.09,0,1,1,1.09,1.094A1.092,1.092,0,0,1,1277.99,27.179Zm11.92-13.186a2.834,2.834,0,0,0-2.64,1.878h-9.07c0.09-.031.18,0-0.02-0.03V20.4l-0.52-.635a0.881,0.881,0,0,0-.54-0.257c-0.19-.026-0.6-0.023-0.83-0.033,0.01,0.465.01,0.668,0.01,0.9a0.86,0.86,0,0,0,.25.607l2.1,2.108a0.708,0.708,0,0,0,.59.177,0.944,0.944,0,0,0,.64-0.231c0.01-.014,2.06-2.067,2.06-2.067a0.862,0.862,0,0,0,.25-0.608c0-.229-0.02-0.524-0.01-0.884-0.33.009-.61,0.019-0.83,0.019a0.885,0.885,0,0,0-.62.257l-0.66.648V18.235a0.318,0.318,0,0,1,.37-0.338h6.87a2.9,2.9,0,0,0,2.6,1.729A2.817,2.817,0,0,0,1289.91,13.993Zm1.09,2.783a1.09,1.09,0,1,1-1.09-1.094A1.085,1.085,0,0,1,1291,16.776Z" transform="translate(-1276.28 -14)"/>
</svg>
