<svg xmlns:i="&amp;ns_ai;" xmlns="http://www.w3.org/2000/svg" xmlns:xlink="http://www.w3.org/1999/xlink" id="Layer_1" viewBox="0 0 308 186"><style id="style3">.st0, path, circle{fill:black}</style><switch id="switch5"><g i:extraneous="self" id="g7"><g id="g9"><g id="g11"><g><path d="M106.6 152.8H85.3L154.5.8 186 74.1h-18.8l-12.5-28.6-32.8 72.2L168.2 84h102.4v16.3h-94.2z"/><g><path d="M107.7 83.2H36v17.5h63.5z"/><path d="M119.9 57.1H36V74h76z"/><path class="st0" id="polygon23" d="M270.7 74V57.1h-84.1l7.3 16.9z"/><path d="M216.6 126.5h54.1V110h-61.3z"/><path class="st0" id="polygon27" d="M36 110v16.5h51.4l7.8-16.5z"/></g><path class="st0" id="polygon29" d="M197.9 153h21.2l-17.8-43H181z"/></g></g><g id="g31"><path d="M.7 184.5l5.2-10.4h.2l5 10.4H8.5l-.6-1.5H3.8l-.7 1.5H.7zm3.7-3.2h2.7l-1.3-3.2-1.4 3.2z" id="path33"/><path id="polygon35" d="M19.5 184.5v-10.1h2.4v7.9h4v2.2z"/><path d="M33.7 184.5v-10.1h2.6c.8 0 1.4.1 1.9.2s.9.3 1.2.6c.4.3.7.6.9 1 .2.4.3.8.3 1.3 0 1-.4 1.8-1.1 2.4-.7.6-1.7.9-3 .9H36v3.7h-2.3zm2.7-8.3h-.3v2.7h.4c.6 0 1.1-.1 1.4-.4.3-.2.5-.6.5-1 0-.5-.2-.8-.5-1-.3-.2-.8-.3-1.5-.3z" id="path37"/><path id="polygon39" d="M48.6 184.5v-10.1H51v3.7h3.9v-3.7h2.4v10.1h-2.4v-4.3H51v4.3z"/><path d="M65.8 184.5l5.2-10.4h.2l5 10.4h-2.5l-.6-1.5H69l-.7 1.5h-2.5zm3.8-3.2h2.7l-1.3-3.2-1.4 3.2z" id="path41"/><path d="M95 174.4h2.4v10.1H95z"/><path id="polygon45" d="M109.2 184.6v-10.4h.2l6.3 5.9v-5.6h2.2V185h-.2l-6.3-5.9v5.5z"/><path d="M126.1 184.5v-10.1h2.7c1.9 0 3.4.4 4.4 1.4 1.1.9 1.6 2.1 1.6 3.7 0 .9-.2 1.8-.6 2.5-.4.7-1 1.3-1.9 1.8-.5.3-1 .5-1.5.6s-1.2.2-2 .2l-2.7-.1zm2.4-2.2h.5c1.1 0 1.9-.3 2.5-.8s.9-1.2.9-2.1c0-.9-.3-1.6-.9-2.1-.6-.5-1.4-.8-2.5-.8h-.5v5.8z" id="path47"/><path d="M146.6 174.6v5.6c0 .9.2 1.6.5 2s.8.7 1.5.7c.6 0 1.1-.2 1.5-.6.3-.4.5-1 .5-1.8v-5.8h2.2v5.8c0 1.5-.4 2.6-1.1 3.4-.7.8-1.8 1.2-3.1 1.2s-2.4-.4-3.1-1.2c-.7-.8-1.1-1.9-1.1-3.4v-5.8l2.2-.1z"/><path d="M161.2 181.3c.6.4 1.2.6 1.6.8.4.2.9.2 1.3.2s.8-.1 1-.3c.3-.2.4-.4.4-.7 0-.4-.4-.9-1.4-1.4-.1-.1-.3-.1-.3-.2l-.7-.4c-.7-.4-1.2-.8-1.5-1.3s-.5-1-.5-1.6c0-.8.3-1.5.9-2 .6-.5 1.4-.8 2.4-.8.4 0 .7 0 1.2.1.4.1.9.2 1.4.4v2.4c-.5-.3-.9-.5-1.4-.7-.4-.2-.8-.3-1.1-.3s-.6.1-.8.2c-.2.1-.3.3-.3.6 0 .2.1.3.2.5s.3.3.5.4l1.2.7c1 .5 1.7 1.1 2 1.5.3.5.5 1 .5 1.7 0 1-.3 1.8-1 2.4-.7.6-1.6.9-2.7.9-.4 0-.8 0-1.2-.1s-.9-.2-1.5-.4l-.2-2.6z"/><path d="M179 184.5v-8h-3.2v-2.1h8.9v2.1h-3.2v8z"/><path d="M194.1 184.6v-10.1h2.6c.8 0 1.5.1 1.9.2.5.1.9.3 1.2.5.4.3.7.6.9 1s.3.8.3 1.3c0 .6-.2 1.2-.5 1.7s-.8.9-1.4 1.1l3.1 4.3h-2.7l-2.7-4h-.3v4h-2.4zm2.7-8.2h-.4v2.8h.5c.6 0 1.1-.1 1.4-.4.3-.2.5-.6.5-1.1s-.2-.8-.5-1-.8-.3-1.5-.3z" id="path55"/><path id="rect57" d="M208.3 174.5h2.4v10.1h-2.4z"/><path d="M220.8 184.5v-10.1h6.3v2h-3.9v1.9h3.3v2h-3.3v2h3.9v2.2z"/><path d="M236.6 181.3c.6.4 1.2.6 1.6.8s.9.2 1.3.2.8-.1 1-.3c.3-.2.4-.4.4-.7 0-.4-.4-.9-1.4-1.4-.1-.1-.3-.1-.3-.2l-.7-.4c-.7-.4-1.2-.8-1.5-1.3s-.5-1-.5-1.6c0-.8.3-1.5.9-2s1.4-.8 2.4-.8c.4 0 .7 0 1.2.1.4.1.9.2 1.4.4v2.4c-.5-.3-.9-.5-1.4-.7-.4-.2-.8-.3-1.1-.3-.3 0-.6.1-.8.2-.2.1-.3.3-.3.6 0 .2.1.3.2.5s.3.3.5.4l1.2.7c1 .5 1.7 1.1 2 1.5.3.5.5 1 .5 1.7 0 1-.3 1.8-1 2.4-.7.6-1.6.9-2.7.9-.4 0-.8 0-1.2-.1-.4-.1-.9-.2-1.5-.4l-.2-2.6z"/><path class="st0" d="M262.5 174.4h2.4v10.1h-2.4z"/><path id="polygon65" d="M275 184.6v-10.4h.2l6.3 5.9v-5.6h2.2V185h-.2l-6.3-5.9v5.5z"/><path d="M299.8 178.1c-.4-.4-.9-.8-1.3-1s-.9-.3-1.4-.3c-.8 0-1.5.3-2.1.9-.5.6-.8 1.3-.8 2.2s.3 1.6.8 2.2c.5.6 1.2.8 2.1.8.5 0 1-.1 1.5-.3s1-.5 1.5-.9l-.2 2.6c-.4.3-.9.5-1.4.7s-1 .2-1.6.2-1.1-.1-1.7-.3c-.5-.2-1-.5-1.5-.8-.6-.5-1.1-1.1-1.5-1.8-.3-.7-.5-1.5-.5-2.4 0-.7.1-1.4.4-2.1.3-.6.6-1.2 1.1-1.7s1-.9 1.7-1.1c.6-.3 1.3-.4 2-.4.6 0 1.1.1 1.6.2.5.2 1 .4 1.5.7l-.2 2.6z" id="path67"/><circle cx="305.6" cy="182.8" r="1.7"/></g></g></g></switch></svg>