<svg xmlns="http://www.w3.org/2000/svg" width="20.56" height="20" viewBox="0 0 20.56 20"><defs><style>.cls-1{fill:#fff;fill-rule:evenodd}</style></defs><path id="icon_compare_2" class="cls-1" d="M1180.2 3251a3.488 3.488 0 0 0 3.3-2.29h10.81a.671.671 0 0 0 .6-.6v-5.15l.64.8a.875.875 0 0 0 .66.32.985.985 0 0 0 .72-.32 1.026 1.026 0 0 0 .31-.76 1.075 1.075 0 0 0-.32-.76c-2.65-2.65-2.66-2.65-2.66-2.65a1.071 1.071 0 0 0-1.53.06c-.02 0-2.58 2.59-2.58 2.59a1.08 1.08 0 0 0 .76 1.84 1.165 1.165 0 0 0 .79-.32l.84-.8v2.69a.51.51 0 0 1-.52.52h-8.59a3.645 3.645 0 0 0-3.25-2.21 3.489 3.489 0 0 0-3.48 3.51 3.53 3.53 0 0 0 3.5 3.53zm-1.36-3.53a1.36 1.36 0 1 1 1.36 1.37 1.357 1.357 0 0 1-1.36-1.37zm14.9-16.48a3.532 3.532 0 0 0-3.3 2.35h-11.34c.11-.04.22 0-.03-.04v5.7l-.65-.8a1.086 1.086 0 0 0-.68-.32c-.23-.03-.75-.03-1.03-.04.01.58.01.83.01 1.12a1.035 1.035 0 0 0 .32.76l2.62 2.64a.906.906 0 0 0 .73.22 1.179 1.179 0 0 0 .8-.29l2.58-2.59a1.07 1.07 0 0 0 .32-.75c0-.29-.02-.66-.01-1.11-.42.01-.76.02-1.05.02a1.14 1.14 0 0 0-.78.32l-.82.82v-2.71a.409.409 0 0 1 .47-.42h8.59a3.6 3.6 0 0 0 3.25 2.16 3.489 3.489 0 0 0 3.48-3.51 3.532 3.532 0 0 0-3.48-3.53zm1.36 3.48a1.365 1.365 0 1 1-1.36-1.37 1.364 1.364 0 0 1 1.36 1.37z" transform="translate(-1176.69 -3231)"/></svg>