<svg xmlns="http://www.w3.org/2000/svg" width="44" height="40" viewBox="0 0 44 40"><defs><style>.cls-1{fill:#fff;fill-rule:evenodd}</style></defs><path id="icon_bag" class="cls-1" d="M1529.48 86.074h40.74v4.444h-40.74v-4.444zm40.74 11.851V92h-40.74v12.592a.739.739 0 0 0 .74.741h5.21a3.7 3.7 0 1 0 4.4 0h15.6a3.7 3.7 0 1 0 4.4 0h4.47a.741.741 0 0 0 0-1.481h-33.34v-5.927h39.26zm-43.7-24.443h2.96v11.11h40.74v-5.925h-39.26v-5.926a.739.739 0 0 0-.74-.741h-3.7a.741.741 0 0 0 0 1.481z" transform="translate(-1525.78 -72)"/></svg>