<svg xmlns="http://www.w3.org/2000/svg" width="19.812" height="16" viewBox="0 0 19.812 16"><defs><style>.cls-1{fill:#fff;fill-rule:evenodd}</style></defs><path id="icon_size" class="cls-1" d="M556.567 21.25l-1.1-.131a4.862 4.862 0 0 0-.488-1.173l.68-.861a.352.352 0 0 0-.027-.457l-1.127-1.128a.359.359 0 0 0-.459-.028l-.867.679A4.868 4.868 0 0 0 552 17.67l-.13-1.092a.356.356 0 0 0-.344-.3h-1.6a.356.356 0 0 0-.344.3l-.132 1.091a4.882 4.882 0 0 0-1.179.485l-.868-.678a.356.356 0 0 0-.458.027l-1.131 1.126a.353.353 0 0 0-.028.456l.682.861a4.812 4.812 0 0 0-.487 1.174l-1.1.131a.354.354 0 0 0-.3.342v1.59a.353.353 0 0 0 .3.341l1.1.132a4.864 4.864 0 0 0 .487 1.172l-.681.862a.354.354 0 0 0 .028.457l1.13 1.125a.356.356 0 0 0 .458.028l.868-.68a4.859 4.859 0 0 0 1.179.485l.132 1.091a.356.356 0 0 0 .344.3h1.6a.356.356 0 0 0 .344-.3L552 27.1a4.864 4.864 0 0 0 1.179-.485l.868.677a.358.358 0 0 0 .458-.026l1.131-1.126a.351.351 0 0 0 .028-.456l-.682-.862a4.8 4.8 0 0 0 .487-1.173l1.1-.13a.353.353 0 0 0 .305-.342v-1.586a.354.354 0 0 0-.307-.341zm-5.84 4.19a3.055 3.055 0 1 1 3.073-3.055 3.063 3.063 0 0 1-3.073 3.055zm13.464-9.206l-.827-.1a3.609 3.609 0 0 0-.364-.881l.514-.649a.265.265 0 0 0-.021-.344l-.851-.846a.269.269 0 0 0-.346-.021l-.653.511a3.642 3.642 0 0 0-.887-.363l-.1-.821a.265.265 0 0 0-.257-.228h-1.2a.266.266 0 0 0-.259.228l-.1.821a3.65 3.65 0 0 0-.888.364l-.653-.51a.272.272 0 0 0-.345.019l-.852.848a.264.264 0 0 0-.021.343l.514.649a3.634 3.634 0 0 0-.367.884l-.826.1a.267.267 0 0 0-.229.258v1.2a.264.264 0 0 0 .229.256l.825.1a3.7 3.7 0 0 0 .368.882l-.514.649a.267.267 0 0 0 .021.344l.85.846a.267.267 0 0 0 .345.021l.653-.512a3.635 3.635 0 0 0 .888.364l.1.822a.267.267 0 0 0 .259.226h1.2a.267.267 0 0 0 .258-.226l.1-.822a3.619 3.619 0 0 0 .888-.364l.653.51a.269.269 0 0 0 .346-.02l.851-.847a.265.265 0 0 0 .021-.343l-.514-.655a3.576 3.576 0 0 0 .366-.882l.827-.1a.267.267 0 0 0 .229-.258v-1.2a.264.264 0 0 0-.231-.253zm-4.4 3.157a2.3 2.3 0 1 1 2.312-2.3 2.307 2.307 0 0 1-2.309 2.3z" transform="translate(-544.594 -12.5)"/></svg>