<svg xmlns="http://www.w3.org/2000/svg" width="14.09" height="20" viewBox="0 0 14.09 20"><defs><style>.cls-1{fill:#fff;fill-rule:evenodd}</style></defs><path id="icon_tab_2" class="cls-1" d="M1155.22 3231.01h-12.04a1.029 1.029 0 0 0-1.03 1.03v13.54a1.424 1.424 0 0 0 .61 1.18l5.73 4.01a1.251 1.251 0 0 0 1.41 0l5.73-4.01a1.434 1.434 0 0 0 .62-1.18v-13.54a1.029 1.029 0 0 0-1.03-1.03zm-1.7 7.73l-1.96 1.67.61 2.5a.534.534 0 0 1-.8.59l-2.17-1.36-2.18 1.36a.543.543 0 0 1-.81-.59l.61-2.51-1.96-1.66a.542.542 0 0 1 .31-.95l2.56-.19.96-2.39a.539.539 0 0 1 1 0l.97 2.39 2.55.19a.538.538 0 0 1 .31.95z" transform="translate(-1142.16 -3231)"/></svg>