<svg xmlns="http://www.w3.org/2000/svg" width="15.85" height="16" viewBox="0 0 15.85 16"><defs><style>.cls-1{fill:#fff;fill-rule:evenodd}</style></defs><path id="icon_login" class="cls-1" d="M1103.05 24.1l6.54-3.81a.332.332 0 0 0 0-.579l-6.54-3.811a.347.347 0 0 0-.34 0 .336.336 0 0 0-.16.29v1.774h-5.65a.336.336 0 0 0-.34.335v3.4a.336.336 0 0 0 .34.335h5.65v1.773a.335.335 0 0 0 .16.29.361.361 0 0 0 .17.045.336.336 0 0 0 .17-.042zm6.9-12.1h-6.76a.328.328 0 0 0-.33.335v1a.328.328 0 0 0 .33.335h6.76a.792.792 0 0 1 .79.8v11.059a.793.793 0 0 1-.79.8h-6.76a.327.327 0 0 0-.33.334v1a.327.327 0 0 0 .33.334h6.76a2.463 2.463 0 0 0 2.45-2.47V14.469a2.464 2.464 0 0 0-2.45-2.469z" transform="translate(-1096.56 -12)"/></svg>