<svg xmlns="http://www.w3.org/2000/svg" width="23.812" height="16" viewBox="0 0 23.812 16"><defs><style>.cls-1{fill:#fff;fill-rule:evenodd}</style></defs><path id="icon_delivery" class="cls-1" d="M465.964 18.907l-4.528-4.466a1.526 1.526 0 0 0-1.077-.441h-2.283v-.857a1.152 1.152 0 0 0-1.157-1.148h-13.186a1.148 1.148 0 0 0-1.152 1.148v7.691h23.837V20a1.529 1.529 0 0 0-.454-1.093zm-1.972.148h-4.384a.177.177 0 0 1-.178-.177V15.5a.177.177 0 0 1 .178-.177h.835a.207.207 0 0 1 .128.05l3.544 3.378a.176.176 0 0 1-.123.304zm2.427 2.415v2.544a1.151 1.151 0 0 1-1.152 1.149h-1.233a3.162 3.162 0 0 0-6.256 0h-6.249a3.16 3.16 0 0 0-6.252 0h-1.544a1.151 1.151 0 0 1-1.152-1.149V21.47h23.838zm-5.512 1.765a2.384 2.384 0 1 0 2.388 2.382 2.387 2.387 0 0 0-2.388-2.382zm0 3.575a1.193 1.193 0 1 1 1.192-1.193 1.192 1.192 0 0 1-1.192 1.193zm-12.5-3.575a2.384 2.384 0 1 0 2.387 2.382 2.387 2.387 0 0 0-2.394-2.382zm0 3.575a1.193 1.193 0 1 1 1.2-1.193 1.192 1.192 0 0 1-1.207 1.193z" transform="translate(-442.594 -12)"/></svg>