<svg xmlns="http://www.w3.org/2000/svg" width="16.44" height="16" viewBox="0 0 16.44 16"><defs><style>.cls-1{fill:#fff;fill-rule:evenodd}</style></defs><path id="icon_compare" class="cls-1" d="M1279.08 30a2.788 2.788 0 0 0 2.64-1.838h8.65a.526.526 0 0 0 .48-.473v-4.12l.51.635a.7.7 0 0 0 .53.256.792.792 0 0 0 .58-.256.877.877 0 0 0-.01-1.216c-2.12-2.121-2.13-2.121-2.13-2.121a.885.885 0 0 0-.65-.23.861.861 0 0 0-.58.284c-.01 0-2.06 2.067-2.06 2.067a.864.864 0 0 0 .61 1.472.907.907 0 0 0 .63-.256l.67-.635v2.151a.407.407 0 0 1-.41.419h-6.87a2.916 2.916 0 0 0-2.6-1.769 2.793 2.793 0 0 0-2.79 2.81 2.828 2.828 0 0 0 2.8 2.82zm-1.09-2.823a1.09 1.09 0 1 1 1.09 1.094 1.092 1.092 0 0 1-1.09-1.092zm11.92-13.186a2.834 2.834 0 0 0-2.64 1.878h-9.07c.09-.031.18 0-.02-.03V20.4l-.52-.635a.881.881 0 0 0-.54-.257c-.19-.026-.6-.023-.83-.033.01.465.01.668.01.9a.86.86 0 0 0 .25.607l2.1 2.108a.708.708 0 0 0 .59.177.944.944 0 0 0 .64-.231c.01-.014 2.06-2.067 2.06-2.067a.862.862 0 0 0 .25-.608c0-.229-.02-.524-.01-.884-.33.009-.61.019-.83.019a.885.885 0 0 0-.62.257l-.66.648v-2.166a.318.318 0 0 1 .37-.338h6.87a2.9 2.9 0 0 0 2.6 1.729 2.817 2.817 0 0 0 0-5.633zm1.09 2.783a1.09 1.09 0 1 1-1.09-1.094 1.085 1.085 0 0 1 1.09 1.096z" transform="translate(-1276.28 -14)"/></svg>