<svg xmlns="http://www.w3.org/2000/svg" width="11.25" height="16" viewBox="0 0 11.25 16"><defs><style>.cls-1{fill:#7f8000;fill-rule:evenodd}</style></defs><path id="icon_tab" class="cls-1" d="M1180.81 12.009h-9.63a.823.823 0 0 0-.82.823v10.835a1.136 1.136 0 0 0 .49.938l4.59 3.209a.98.98 0 0 0 1.12 0l4.59-3.209a1.136 1.136 0 0 0 .49-.938V12.832a.825.825 0 0 0-.83-.823zm-1.35 6.185l-1.57 1.332.49 2a.428.428 0 0 1-.64.472l-1.74-1.087-1.74 1.089a.434.434 0 0 1-.65-.472l.49-2-1.57-1.332a.434.434 0 0 1 .25-.762l2.05-.15.77-1.912a.432.432 0 0 1 .8 0l.77 1.912 2.04.15a.434.434 0 0 1 .25.76z" transform="translate(-1170.38 -12)"/></svg>